<svg width="82" height="82" viewBox="0 0 82 82" fill="none" xmlns="http://www.w3.org/2000/svg">
<path d="M0 0H82V82H0V0Z" fill="black"/>
<path d="M39.4428 33.6011C39.0814 34.1187 38.5761 34.5068 37.9267 34.7656C37.2821 35.0195 36.5302 35.1465 35.6708 35.1465C34.8017 35.1465 34.0302 34.9438 33.3563 34.5386C32.6825 34.1284 32.1601 33.5474 31.789 32.7954C31.4228 32.0435 31.2348 31.1719 31.225 30.1807V29.2505C31.225 27.644 31.5985 26.3989 32.3456 25.5151C33.0976 24.6313 34.1522 24.1895 35.5097 24.1895C36.6229 24.1895 37.5189 24.4751 38.1977 25.0464C38.8764 25.6128 39.2914 26.4185 39.4428 27.4634H38.0365C37.7729 26.0522 36.933 25.3467 35.517 25.3467C34.5746 25.3467 33.8593 25.6787 33.371 26.3428C32.8876 27.002 32.6435 27.959 32.6386 29.2139V30.0854C32.6386 31.2817 32.912 32.2339 33.4589 32.9419C34.0058 33.645 34.7455 33.9966 35.6781 33.9966C36.2055 33.9966 36.6669 33.938 37.0624 33.8208C37.4579 33.7036 37.7851 33.5059 38.0438 33.2275V30.8325H35.5756V29.6899H39.4428V33.6011ZM50.797 30.0122C50.797 31.0571 50.6212 31.9702 50.2696 32.7515C49.9181 33.5278 49.42 34.1211 48.7755 34.5312C48.131 34.9414 47.379 35.1465 46.5196 35.1465C45.6798 35.1465 44.9352 34.9414 44.2857 34.5312C43.6363 34.1162 43.131 33.5278 42.7696 32.7661C42.4132 31.9995 42.2301 31.1133 42.2203 30.1074V29.3384C42.2203 28.313 42.3985 27.4072 42.755 26.6211C43.1114 25.835 43.6144 25.2344 44.2638 24.8193C44.9181 24.3994 45.6651 24.1895 46.505 24.1895C47.3595 24.1895 48.1114 24.397 48.7608 24.812C49.4151 25.2222 49.9181 25.8203 50.2696 26.6064C50.6212 27.3877 50.797 28.2983 50.797 29.3384V30.0122ZM49.398 29.3237C49.398 28.0591 49.1441 27.0898 48.6363 26.416C48.1285 25.7373 47.4181 25.3979 46.505 25.3979C45.6163 25.3979 44.9156 25.7373 44.4029 26.416C43.8951 27.0898 43.6339 28.0273 43.6192 29.2285V30.0122C43.6192 31.2378 43.8756 32.2021 44.3883 32.9053C44.9059 33.6035 45.6163 33.9526 46.5196 33.9526C47.4278 33.9526 48.131 33.623 48.629 32.9639C49.1271 32.2998 49.3834 31.3501 49.398 30.1147V29.3237Z" fill="white"/>
<path d="M39.6938 39.625V47.3594C39.6885 48.4323 39.35 49.3099 38.6781 49.9922C38.0115 50.6745 37.1052 51.0573 35.9594 51.1406L35.5609 51.1562C34.3161 51.1562 33.324 50.8203 32.5844 50.1484C31.8448 49.4766 31.4698 48.5521 31.4594 47.375V39.625H32.9438V47.3281C32.9438 48.151 33.1703 48.7917 33.6234 49.25C34.0766 49.7031 34.7224 49.9297 35.5609 49.9297C36.4099 49.9297 37.0583 49.7031 37.5063 49.25C37.9594 48.7969 38.1859 48.1589 38.1859 47.3359V39.625H39.6938ZM44.3609 46.5469V51H42.8609V39.625H47.0563C48.301 39.625 49.275 39.9427 49.9781 40.5781C50.6865 41.2135 51.0406 42.0547 51.0406 43.1016C51.0406 44.2057 50.6943 45.0573 50.0016 45.6562C49.3141 46.25 48.3271 46.5469 47.0406 46.5469H44.3609ZM44.3609 45.3203H47.0563C47.8583 45.3203 48.4729 45.1328 48.9 44.7578C49.3271 44.3776 49.5406 43.8307 49.5406 43.1172C49.5406 42.4401 49.3271 41.8984 48.9 41.4922C48.4729 41.0859 47.887 40.875 47.1422 40.8594H44.3609V45.3203Z" fill="white"/>
</svg>
